<svg width="376" height="376" viewBox="0 0 376 376" fill="none" xmlns="http://www.w3.org/2000/svg">
<path d="M271.406 297.012C252.35 311.599 229.809 320.944 206.022 324.12C182.236 327.295 158.032 324.189 135.818 315.112C113.603 306.035 94.1512 291.302 79.3951 272.377C64.6391 253.452 55.0929 230.995 51.7053 207.238C48.3178 183.481 51.2069 159.251 60.0856 136.956C68.9642 114.662 83.5231 95.0788 102.315 80.1543C121.107 65.2299 143.478 55.4836 167.204 51.8841C190.93 48.2846 215.185 50.9572 237.558 59.6364L187.828 187.828L271.406 297.012Z" fill="#6359FF"/>
<g clip-path="url(#clip0_2_103)">
<path d="M273.605 207.716C273.845 207.691 274.072 207.594 274.255 207.436C274.438 207.278 274.568 207.067 274.627 206.833C274.687 206.599 274.673 206.352 274.587 206.126C274.502 205.9 274.349 205.705 274.149 205.569C274.102 205.456 274.069 205.376 274.022 205.263C274.029 205.236 274.036 205.209 274.043 205.182C274.199 204.578 274.53 204.033 274.994 203.617C275.458 203.201 276.035 202.931 276.652 202.842C277.269 202.753 277.898 202.848 278.462 203.116C279.025 203.384 279.496 203.812 279.817 204.347C281.099 206.483 282.639 208.585 283.292 210.947C283.581 211.991 283.686 213.078 283.603 214.158C285.101 208.988 285.471 203.555 284.688 198.228C284.49 196.891 284.218 195.567 283.872 194.261C283.588 193.19 283.257 192.134 282.88 191.093C280.827 185.446 277.466 180.366 273.071 176.27C271.133 175.557 269.459 174.266 268.276 172.571C267.848 171.963 267.51 171.295 267.273 170.589C267.48 170.586 267.688 170.572 267.892 170.555C267.955 170.549 268.022 170.543 268.086 170.537L268.11 170.534C268.333 170.511 268.546 170.424 268.721 170.283C268.896 170.142 269.027 169.953 269.098 169.74C269.169 169.526 269.176 169.296 269.119 169.078C269.063 168.86 268.944 168.663 268.778 168.511C268.675 168.416 268.571 168.322 268.468 168.227C268.311 168.081 268.151 167.939 267.993 167.792C267.976 167.779 267.959 167.764 267.943 167.749C267.762 167.582 267.582 167.419 267.402 167.252C267.616 166.778 267.936 166.361 268.339 166.031C269.734 164.908 271.935 165.216 273.245 166.436C274.558 167.656 275.055 169.567 274.927 171.354C274.768 172.882 274.349 174.371 273.69 175.758C273.789 175.852 273.89 175.942 273.989 176.036C275.794 177.762 277.426 179.661 278.861 181.705C278.224 179.271 278.174 176.72 278.714 174.263C279.29 171.962 280.702 169.887 281.905 167.794C283.35 165.279 287.145 165.72 287.882 168.527C287.889 168.554 287.896 168.581 287.903 168.608C287.702 168.765 287.506 168.929 287.316 169.1C287.077 169.316 286.91 169.599 286.835 169.913C286.76 170.226 286.782 170.555 286.897 170.856C287.012 171.157 287.215 171.416 287.48 171.6C287.745 171.783 288.058 171.882 288.38 171.884L288.413 171.884C288.453 172.69 288.431 173.497 288.348 174.299C288.096 176.542 287.384 178.708 286.256 180.662C285.128 182.615 283.61 184.315 281.795 185.653C281.675 185.739 281.559 185.824 281.439 185.906C283.02 188.897 284.206 192.081 284.967 195.378C285.409 197.323 285.694 199.302 285.818 201.294L285.817 201.222C285.917 198.972 286.79 196.826 288.287 195.146C290.517 192.681 293.99 191.38 296.48 189.296C296.743 189.065 297.067 188.915 297.413 188.863C297.759 188.811 298.112 188.859 298.432 189.001C298.751 189.144 299.024 189.375 299.217 189.667C299.409 189.959 299.515 190.3 299.52 190.65C299.52 190.675 299.52 190.7 299.52 190.725C299.136 190.952 298.767 191.203 298.415 191.476C298.213 191.633 298.017 191.797 297.827 191.968C297.589 192.184 297.421 192.467 297.347 192.781C297.272 193.094 297.293 193.423 297.408 193.724C297.524 194.025 297.727 194.284 297.991 194.468C298.256 194.651 298.57 194.75 298.892 194.752L298.925 194.752C298.949 194.752 298.969 194.753 298.993 194.752C298.543 196.524 297.791 198.204 296.771 199.72C295.507 201.559 293.88 203.12 291.991 204.308C290.102 205.495 287.99 206.284 285.786 206.625L285.782 206.625C285.57 209.32 285.079 211.985 284.316 214.578L275.064 215.951C275.016 215.853 274.97 215.751 274.925 215.652C275.789 215.579 276.642 215.4 277.462 215.12C276.651 214.378 275.838 213.63 275.027 212.889C275.009 212.876 274.992 212.861 274.976 212.846C274.564 212.466 274.149 212.09 273.737 211.71L273.736 211.709C273.521 210.389 273.477 209.047 273.605 207.716L273.605 207.716Z" fill="#F2F2F2"/>
<path d="M73.3037 164.615C73.0767 164.697 72.8298 164.708 72.5966 164.645C72.3633 164.582 72.1549 164.449 71.9996 164.264C71.8443 164.079 71.7496 163.85 71.7284 163.609C71.7071 163.369 71.7603 163.127 71.8808 162.918C71.874 162.796 71.8691 162.709 71.8623 162.587C71.8445 162.565 71.8267 162.544 71.8088 162.523C71.4058 162.047 70.8712 161.7 70.2722 161.527C69.6732 161.353 69.0365 161.361 68.4421 161.549C67.8477 161.737 67.322 162.096 66.9311 162.582C66.5402 163.068 66.3016 163.659 66.2451 164.281C66.0186 166.761 65.5444 169.323 65.9825 171.735C66.1766 172.801 66.5539 173.825 67.0977 174.762C63.5019 170.756 60.8083 166.024 59.1994 160.886C58.797 159.596 58.467 158.285 58.2108 156.958C58.0018 155.87 57.8409 154.776 57.7283 153.674C57.1236 147.696 57.9443 141.659 60.1229 136.061C61.5589 134.576 62.5055 132.686 62.8351 130.645C62.956 129.911 62.9702 129.163 62.877 128.425C62.6898 128.511 62.4964 128.589 62.3051 128.663C62.2453 128.685 62.1823 128.708 62.1225 128.73L62.0999 128.738C61.8883 128.815 61.6592 128.829 61.44 128.778C61.2208 128.727 61.0209 128.614 60.8644 128.452C60.7079 128.29 60.6014 128.087 60.5578 127.866C60.5143 127.645 60.5354 127.416 60.6187 127.207C60.6707 127.077 60.7226 126.947 60.7747 126.816C60.8528 126.616 60.9351 126.418 61.0132 126.218C61.0232 126.198 61.0321 126.178 61.0398 126.157C61.1302 125.929 61.2214 125.703 61.3118 125.475C60.9129 125.141 60.4425 124.904 59.9372 124.782C58.1923 124.377 56.3435 125.611 55.6941 127.279C55.0415 128.949 55.424 130.886 56.3153 132.44C57.123 133.746 58.1468 134.906 59.3431 135.868C59.295 135.996 59.2427 136.121 59.1947 136.249C58.3188 138.588 57.674 141.007 57.2696 143.472C56.7854 141.003 55.7224 138.684 54.1683 136.705C52.6502 134.883 50.4776 133.628 48.4843 132.265C46.09 130.628 42.8637 132.675 43.4192 135.523C43.4246 135.55 43.43 135.578 43.4355 135.605C43.6853 135.659 43.9329 135.722 44.1782 135.793C44.487 135.884 44.7611 136.067 44.9646 136.316C45.168 136.566 45.2914 136.872 45.3185 137.193C45.3457 137.514 45.2753 137.836 45.1166 138.116C44.9579 138.396 44.7182 138.622 44.4291 138.763L44.3995 138.778C44.714 139.521 45.0843 140.238 45.5074 140.925C46.7087 142.835 48.2913 144.476 50.1557 145.746C52.0202 147.016 54.1264 147.886 56.3424 148.303C56.4872 148.328 56.6288 148.354 56.7726 148.376C56.648 151.757 56.9633 155.14 57.7103 158.44C58.1571 160.385 58.7603 162.29 59.5139 164.138L59.4834 164.074C58.416 162.091 56.6977 160.537 54.6188 159.674C51.5403 158.423 47.8469 158.761 44.6985 157.965C44.3612 157.872 44.0045 157.878 43.6704 157.981C43.3362 158.085 43.0386 158.281 42.8126 158.548C42.5866 158.816 42.4417 159.142 42.3949 159.489C42.3481 159.836 42.4014 160.189 42.5485 160.507C42.5594 160.529 42.5703 160.551 42.5813 160.574C43.0255 160.612 43.4669 160.677 43.903 160.77C44.1527 160.824 44.4003 160.886 44.6456 160.957C44.9544 161.049 45.2285 161.231 45.432 161.481C45.6355 161.731 45.7588 162.036 45.786 162.357C45.8131 162.678 45.7427 163 45.584 163.28C45.4253 163.561 45.1857 163.786 44.8965 163.928L44.8669 163.942C44.8455 163.953 44.8273 163.962 44.806 163.972C45.9809 165.372 47.3876 166.558 48.9646 167.481C50.9027 168.588 53.0461 169.287 55.2633 169.535C57.4806 169.784 59.7251 169.576 61.859 168.926L61.8622 168.925C63.2241 171.259 64.8246 173.446 66.638 175.45L75.5669 172.666C75.568 172.556 75.5648 172.445 75.5627 172.337C74.7524 172.646 73.9073 172.856 73.0461 172.96C73.455 171.939 73.8619 170.912 74.2708 169.892C74.2808 169.872 74.2897 169.852 74.2974 169.831C74.5036 169.31 74.7141 168.791 74.9203 168.269L74.9204 168.269C74.5404 166.986 73.9972 165.758 73.304 164.615L73.3037 164.615Z" fill="#F2F2F2"/>
<path d="M198.694 136.485C199.17 136.521 199.633 136.66 200.049 136.894C200.465 137.128 200.826 137.451 201.104 137.839C201.382 138.227 201.572 138.672 201.66 139.142C201.749 139.611 201.733 140.095 201.614 140.557L207.58 145.046L205.741 149.339L197.405 142.882C196.642 142.631 195.996 142.108 195.592 141.413C195.188 140.717 195.052 139.898 195.211 139.109C195.37 138.321 195.812 137.618 196.454 137.134C197.096 136.651 197.893 136.42 198.694 136.485V136.485Z" fill="#A0616A"/>
<path d="M247.158 140.868C246.576 140.236 245.874 139.724 245.094 139.364C244.313 139.003 243.47 138.8 242.611 138.766C241.752 138.733 240.896 138.869 240.09 139.168C239.284 139.467 238.545 139.921 237.916 140.507L223.773 153.651L203.502 142.28L199.971 147.156L224.052 168.313L246.437 150.402C245.914 150.82 248.086 141.876 247.158 140.868Z" fill="#CCCCCC"/>
<path d="M221.775 180.326C223.34 188.287 223.322 196.478 221.724 204.431C220.125 212.384 216.976 219.943 212.458 226.676C207.94 233.409 202.14 239.185 195.39 243.673C188.641 248.161 181.073 251.274 173.12 252.834C139.677 259.399 107.237 237.58 100.665 204.1C99.3812 197.589 99.1539 190.914 99.992 184.331C101.65 171.471 107.305 159.46 116.157 149.996C125.009 140.532 136.61 134.094 149.321 131.592C160.282 129.437 171.625 130.301 182.136 134.094C192.648 137.887 201.935 144.466 209.005 153.128C210.756 155.264 212.359 157.516 213.805 159.87C214.006 160.198 214.203 160.526 214.397 160.859L214.398 160.862C215.261 162.323 216.064 163.825 216.806 165.37C219.094 170.123 220.764 175.149 221.775 180.326V180.326Z" fill="#3F3D56"/>
<path d="M146.566 152.614C143.556 151.675 140.371 151.436 137.255 151.916C134.139 152.397 131.174 153.583 128.586 155.384C126.306 156.961 124.062 159.425 123.921 163.108C126.896 160.46 131.868 162.746 133.723 167.614L133.532 167.71C133.76 171.29 135.526 174.889 137.928 176.665C137.746 174.366 138.922 172.546 140.187 171.306C141.451 170.065 142.921 169.055 143.707 167.195C144.639 164.99 144.414 162.078 144.426 159.38C144.439 156.681 144.881 153.696 146.566 152.614Z" fill="white"/>
<path d="M133.562 186.01C132.905 187.594 131.832 188.717 130.93 190.031C130.032 191.347 129.264 193.037 129.415 194.983C129.513 196.23 129.975 197.427 130.187 198.665C130.398 199.904 130.26 201.372 129.483 201.843C128.255 202.581 126.763 200.32 125.37 200.415C124.264 200.493 123.625 202.384 124.228 203.798C124.83 205.212 126.428 205.576 127.084 204.447C128.099 205.581 128.018 208.013 126.948 208.633C126.986 209.465 127.023 210.293 127.063 211.125C123.765 209.663 120.429 208.174 117.38 205.684C113.993 202.943 111.502 199.252 110.226 195.085C109.235 191.729 108.942 187.726 106.858 185.404C105.19 183.545 102.946 183.503 101.034 184.015C100.685 184.108 100.337 184.218 99.992 184.331C100.46 180.671 101.259 177.061 102.378 173.545C102.739 173.298 103.061 172.998 103.332 172.655C104.834 170.768 105.026 167.509 106.068 165.077C106.135 164.92 106.207 164.766 106.282 164.615C107.395 162.365 109.202 160.964 110.956 159.647C114.836 156.721 118.835 153.743 123.42 153.143L122.156 153.521C121.48 158.033 120.803 162.544 120.125 167.057C120.023 167.748 119.919 168.441 119.813 169.136C119.429 171.701 119.049 174.427 119.707 177.086C120.097 178.66 120.982 180.249 122.138 180.589C123.216 180.902 124.165 180.072 124.99 179.274C125.34 178.939 125.686 178.605 126.036 178.267C127.291 177.059 128.695 175.797 130.334 176.119C131.835 176.412 133.232 178.1 133.827 180.099C134.394 182.045 134.301 184.123 133.562 186.01V186.01Z" fill="white"/>
<path d="M147.756 213.12C143.053 211.357 138.35 209.595 133.647 207.832L133.682 207.635C131.269 209.141 131.097 213.996 132.273 217.707C133.449 221.419 135.577 224.525 137.042 228.079C139.031 232.945 139.683 238.255 138.93 243.458C143.231 236.178 146.791 228.484 149.558 220.493C149.963 219.475 150.214 218.401 150.301 217.308C150.352 216.154 150.05 214.837 149.343 214.058C148.9 213.618 148.355 213.295 147.756 213.12V213.12Z" fill="white"/>
<path d="M121.963 169.323C121.714 170.413 121.805 171.784 122.413 172.742C123.034 173.721 124.001 174.028 124.883 174.269L127.427 174.965C128.273 175.196 129.18 175.419 129.905 174.95C130.778 174.384 131.144 172.767 130.702 171.419C130.233 169.984 129.108 169.154 128.083 168.461C126.649 167.491 125.214 166.521 123.779 165.551L123.266 166.512C122.676 167.368 122.235 168.319 121.963 169.323V169.323Z" fill="white"/>
<path d="M206.65 169.022C207.741 169.063 208.833 169.104 209.924 169.145C210.434 172.707 209.329 176.313 207.219 177.955C206.34 178.638 205.289 179.033 204.662 180.111C204.096 181.089 203.982 182.462 203.886 183.771C203.716 186.057 203.546 188.343 203.377 190.629C203.196 193.091 202.885 195.849 201.388 197.017C200.104 198.021 198.299 197.456 196.91 196.186C195.522 194.916 194.461 193.05 193.429 191.231C193.886 193.345 193.309 195.62 192.058 196.631C190.803 197.644 188.97 197.311 187.711 195.848C186.806 194.798 186.221 193.293 185.326 192.224C184.432 191.154 182.914 190.739 182.415 192.005C182.087 192.846 182.373 193.979 182.324 194.975C182.246 196.522 181.318 197.666 180.234 197.963C179.153 198.259 177.959 197.836 176.872 197.157C174.629 195.751 172.679 193.203 171.522 190.173C171.008 188.823 170.642 187.314 170.799 185.922C170.956 184.531 171.756 183.325 172.798 183.379C173.179 181.87 171.531 180.291 170.402 180.68C169.27 181.071 168.604 182.499 167.837 183.646C167.073 184.793 165.878 185.752 164.732 184.987C164.912 185.871 164.307 186.599 163.67 186.647C163.038 186.697 162.388 186.307 161.75 186.065C159.284 185.126 156.674 186.583 155.622 189.482C155.782 185.135 156.275 180.085 159.081 178.52C160.227 177.879 161.627 177.947 162.648 177.026C164.456 175.395 163.958 170.669 161.812 169.1C162.393 170.868 162.765 172.991 162.053 174.418C161.34 175.845 159.177 175.431 158.938 173.575C158.91 174.892 157.575 175.353 156.753 174.507C155.926 173.662 155.669 172.066 155.892 170.818C156.115 169.571 156.719 168.589 157.306 167.645C158.567 165.617 159.849 163.564 161.487 162.123C163.129 160.682 165.198 159.898 167.265 160.605C168.355 160.978 169.401 161.752 170.498 162.054C171.596 162.36 172.852 162.047 173.284 160.745C173.771 159.292 173.041 157.421 172.996 155.734C172.924 152.75 175.542 150.834 177.514 152.426C176.26 152.354 175.303 154.011 175.491 155.754C175.676 157.498 176.881 159.06 178.14 159.351C180.253 159.832 181.732 157.289 182.808 154.993C183.929 152.591 185.053 150.189 186.18 147.787C186.355 147.382 186.565 146.992 186.807 146.622C187.197 146.057 187.786 145.662 188.456 145.516C189.126 145.37 189.827 145.485 190.416 145.837C192.219 146.801 193.46 149.261 195.087 150.802C197.448 153.043 200.341 153.132 203.017 153.132C205.012 153.128 207.008 153.127 209.005 153.128C210.756 155.264 212.359 157.516 213.805 159.87C210.82 161.893 208.324 165.073 206.65 169.022Z" fill="white"/>
<path d="M220.815 208.324C219.949 211.537 218.824 214.674 217.45 217.704C216.138 217.423 215.017 218.605 214.054 219.696C213.049 220.838 211.799 222.003 210.422 221.413C209.014 220.808 208.148 218.512 208.172 216.552C208.197 214.596 208.885 212.908 209.559 211.3C210.272 209.593 211.044 207.815 212.332 206.953C213.623 206.091 215.592 206.565 216.395 208.485L217.385 208.256C216.675 207.598 216.656 205.951 217.351 205.524C218.152 205.027 219.136 206.069 219.853 207.019C220.175 207.449 220.501 207.882 220.815 208.324Z" fill="white"/>
<path d="M179.884 201.585C177.77 202.14 175.557 199.835 173.921 197.461C172.285 195.087 170.675 192.322 168.484 191.38C167.232 190.842 165.954 190.985 164.685 190.854C163.416 190.724 162.015 190.213 161.14 188.784L159.675 188.502C158.08 189.863 156.465 191.247 155.242 193.193C153.871 195.376 153.255 197.95 153.49 200.519C153.765 203.29 155.318 206.136 157.308 206.807C158.881 207.337 160.427 206.504 162.005 206.962C163.976 207.535 165.565 210.009 166.487 212.58C167.409 215.15 167.848 217.923 168.662 220.546C169.475 223.169 170.816 225.801 172.726 226.852C175.117 228.167 177.85 226.148 178.158 222.839C178.309 221.216 177.953 219.488 177.979 217.829C178.023 214.908 179.221 212.512 180.044 209.961C180.866 207.41 181.256 204.089 179.884 201.585Z" fill="white"/>
<path d="M153.324 178.178C153.56 178.322 153.785 178.484 153.998 178.661C154.235 178.932 154.395 179.263 154.458 179.619C154.522 179.974 154.487 180.34 154.358 180.677C154.613 180.612 154.852 180.494 155.059 180.332C155.266 180.17 155.437 179.966 155.562 179.734C155.865 179.212 156.114 178.66 156.304 178.087C156.452 177.687 156.59 177.16 156.358 176.766C156.2 176.497 155.937 176.42 155.727 176.236C155.394 175.944 155.22 175.41 154.99 174.964C154.493 174.002 153.634 173.391 152.84 173.435L152.952 173.435C152.651 173.608 152.526 174.166 152.688 174.613C152.836 175.021 153.174 175.317 153.231 175.75C153.314 176.374 152.755 176.784 152.838 177.408C152.893 177.719 153.067 177.995 153.324 178.178V178.178Z" fill="white"/>
<path d="M147.601 168.424C147.604 168.422 147.607 168.421 147.61 168.42C147.664 168.347 147.712 168.27 147.754 168.189L147.601 168.424Z" fill="#E6E6E6"/>
<path d="M148.811 171.191C149.224 170.793 149.323 169.899 149.028 169.224C148.735 168.554 148.092 168.191 147.61 168.42C147.492 168.598 147.331 168.744 147.141 168.842C146.952 168.941 146.74 168.99 146.527 168.984C146.197 168.965 145.812 168.825 145.586 169.115C145.465 169.322 145.398 169.556 145.39 169.796C145.35 170.126 145.311 170.455 145.271 170.785C145.244 170.905 145.256 171.03 145.304 171.144C145.333 171.187 145.372 171.223 145.418 171.247C145.464 171.271 145.516 171.282 145.568 171.28C146.207 171.34 146.847 171.4 147.486 171.46C147.952 171.503 148.453 171.535 148.811 171.191Z" fill="white"/>
<path d="M202.284 202.175C201.914 201.772 201.545 201.369 201.176 200.966C200.797 200.489 200.329 200.091 199.798 199.794C199.682 199.73 199.554 199.69 199.422 199.676C199.289 199.662 199.156 199.674 199.028 199.713C198.901 199.751 198.783 199.815 198.681 199.9C198.578 199.985 198.494 200.089 198.432 200.207L198.518 200.462C199.312 201.137 200.16 201.893 200.555 203.049C200.71 203.504 200.783 203.993 200.931 204.452C201.079 204.911 201.334 205.368 201.677 205.511C202.174 205.719 202.606 205.183 202.815 204.592C203.01 204.103 203.034 203.562 202.884 203.056C202.746 202.724 202.542 202.424 202.284 202.175V202.175Z" fill="white"/>
<path d="M211.286 182.244C211.262 181.698 211.239 181.151 211.216 180.605C211.232 179.997 211.13 179.391 210.915 178.821C210.867 178.697 210.795 178.584 210.703 178.488C210.611 178.392 210.5 178.315 210.378 178.263C210.256 178.21 210.125 178.183 209.992 178.182C209.859 178.181 209.727 178.206 209.604 178.257L209.505 178.507C209.679 179.535 209.841 180.66 209.4 181.798C209.226 182.247 208.968 182.667 208.786 183.114C208.604 183.561 208.505 184.074 208.675 184.404C208.922 184.884 209.597 184.753 210.137 184.436C210.601 184.187 210.968 183.788 211.178 183.305C211.286 182.963 211.323 182.601 211.286 182.244V182.244Z" fill="#E6E6E6"/>
<path d="M206.784 201.91C206.843 201.491 206.557 201.078 206.43 200.652C206.3 200.095 206.34 199.511 206.545 198.977C206.753 198.47 206.88 197.934 206.923 197.387C206.938 197.139 206.878 196.893 206.751 196.679C206.618 196.489 206.375 196.438 206.279 196.628L206.589 196.752C206.204 196.758 205.826 196.852 205.483 197.025C205.292 197.145 205.132 197.309 205.017 197.504C204.903 197.699 204.837 197.919 204.825 198.145C204.845 198.49 204.836 198.836 204.798 199.179C204.7 199.549 204.404 199.723 204.263 200.059C204.178 200.348 204.167 200.654 204.23 200.949C204.293 201.244 204.428 201.518 204.624 201.748C204.957 202.121 205.417 202.356 205.914 202.408C206.273 202.463 206.717 202.383 206.784 201.91Z" fill="white"/>
<path d="M215.052 202.736C215.236 203.028 215.457 203.295 215.71 203.53C216.158 203.833 216.62 203.502 217.056 203.321C217.454 203.175 217.885 203.14 218.302 203.22C218.719 203.299 219.107 203.49 219.424 203.772C219.076 202.929 218.531 202.181 217.835 201.592C217.138 201.004 216.311 200.591 215.422 200.388C214.268 200.162 213.134 200.341 212.015 200.52L211.833 200.607C212.602 201.936 214.131 201.603 215.052 202.736Z" fill="white"/>
<path d="M182.565 212.141L182.569 212.147C182.58 212.107 182.592 212.068 182.603 212.028L182.565 212.141Z" fill="#E6E6E6"/>
<path d="M181.831 214.668C181.665 215.188 181.539 215.72 181.453 216.26C181.37 217.122 181.373 217.991 181.462 218.854C181.497 219.347 181.599 219.966 181.947 220.142C182.045 220.182 182.154 220.186 182.254 220.152C182.354 220.117 182.439 220.048 182.491 219.956C182.624 219.746 182.721 219.515 182.778 219.273C183.17 218.135 183.416 216.951 183.509 215.751C183.562 214.496 183.282 213.085 182.569 212.147C182.323 212.987 182.077 213.828 181.831 214.668Z" fill="white"/>
<path d="M158.407 155.779C158.631 155.927 158.894 156.005 159.162 156.005C159.43 156.004 159.692 155.926 159.916 155.778C160.377 155.459 160.779 155.062 161.105 154.606C161.389 154.295 161.61 153.933 161.756 153.538C161.834 153.304 161.865 153.058 161.847 152.812C161.829 152.566 161.762 152.327 161.652 152.107C161.357 151.595 160.846 151.505 160.402 151.463C159.692 151.395 158.982 151.328 158.272 151.26L158.671 150.727C158.119 150.557 157.665 151.163 157.474 151.841C157.352 152.283 157.297 152.74 157.31 153.198C157.333 154.198 157.722 155.318 158.407 155.779Z" fill="#E6E6E6"/>
<path d="M169.471 149.473C169.701 149.645 169.988 149.723 170.273 149.69C170.558 149.658 170.82 149.519 171.006 149.3C171.167 149.12 171.289 148.908 171.364 148.678C171.438 148.448 171.463 148.205 171.437 147.964C171.381 147.426 171.005 146.89 170.623 146.918L170.611 146.407C169.868 146.418 168.979 146.565 168.766 147.513C168.702 147.873 168.733 148.244 168.857 148.588C168.981 148.932 169.192 149.237 169.471 149.473Z" fill="#E6E6E6"/>
<path d="M162.725 123.48C158.423 123.831 154.437 125.878 151.644 129.171C148.851 132.465 147.48 136.734 147.832 141.041C148.566 150.009 156.923 168.155 166.89 174.39C167.888 158.501 180.018 146.811 180.275 138.395C180.549 129.401 171.684 122.749 162.725 123.48Z" fill="#6C63FF"/>
<path d="M163.643 143.556C166.52 142.992 168.393 140.2 167.828 137.32C167.263 134.44 164.472 132.564 161.596 133.128C158.719 133.693 156.846 136.485 157.411 139.365C157.976 142.244 160.767 144.121 163.643 143.556Z" fill="white"/>
<path d="M165.591 182.452C167.475 182.083 168.702 180.254 168.332 178.368C167.962 176.482 166.134 175.252 164.25 175.622C162.366 175.992 161.139 177.821 161.509 179.707C161.879 181.593 163.707 182.822 165.591 182.452Z" fill="#6C63FF"/>
<path opacity="0.2" d="M166.196 133.761C166.851 133.999 167.453 134.363 167.968 134.834C168.483 135.304 168.9 135.872 169.196 136.503C169.492 137.135 169.661 137.819 169.693 138.516C169.724 139.213 169.619 139.91 169.382 140.566C169.145 141.222 168.781 141.825 168.311 142.34C167.841 142.855 167.274 143.273 166.643 143.568C165.369 144.166 163.909 144.232 162.585 143.752C163.845 143.784 165.075 143.366 166.055 142.573C167.035 141.78 167.7 140.664 167.933 139.424C168.166 138.184 167.95 136.901 167.324 135.806C166.698 134.711 165.704 133.874 164.518 133.445C165.091 133.459 165.657 133.566 166.196 133.761V133.761Z" fill="#231F20"/>
<path opacity="0.2" d="M180.298 138.407C180.042 146.824 167.911 158.514 166.914 174.403C165.975 173.809 165.081 173.147 164.24 172.422C165.906 157.343 177.237 146.156 177.485 138.024C177.707 130.746 171.943 125.002 164.988 123.462C173.126 123.892 180.55 130.166 180.298 138.407Z" fill="#231F20"/>
<path d="M117.911 153.405C114.68 153.668 111.687 155.206 109.59 157.679C107.492 160.152 106.463 163.359 106.727 166.593C107.278 173.327 113.554 186.955 121.039 191.637C121.788 179.704 130.898 170.926 131.09 164.605C131.296 157.852 124.639 152.856 117.911 153.405Z" fill="#6C63FF"/>
<path d="M118.6 168.482C120.761 168.058 122.168 165.961 121.743 163.799C121.319 161.636 119.223 160.227 117.063 160.651C114.903 161.075 113.496 163.172 113.921 165.334C114.345 167.497 116.44 168.906 118.6 168.482Z" fill="white"/>
<path d="M120.063 197.691C121.478 197.414 122.4 196.04 122.122 194.624C121.844 193.207 120.471 192.284 119.056 192.562C117.642 192.84 116.72 194.213 116.998 195.63C117.276 197.046 118.648 197.969 120.063 197.691Z" fill="#6C63FF"/>
<path opacity="0.2" d="M120.517 161.126C121.01 161.304 121.462 161.578 121.849 161.931C122.235 162.285 122.549 162.711 122.771 163.185C122.993 163.66 123.12 164.173 123.144 164.697C123.167 165.22 123.088 165.743 122.91 166.236C122.732 166.729 122.459 167.181 122.106 167.568C121.753 167.955 121.328 168.269 120.854 168.491C120.38 168.713 119.866 168.84 119.344 168.863C118.821 168.887 118.298 168.807 117.806 168.629C118.752 168.653 119.676 168.339 120.412 167.743C121.147 167.148 121.647 166.309 121.822 165.378C121.997 164.447 121.835 163.484 121.365 162.662C120.895 161.839 120.148 161.21 119.258 160.889C119.687 160.899 120.113 160.979 120.517 161.126Z" fill="#231F20"/>
<path opacity="0.2" d="M131.108 164.615C130.915 170.936 121.806 179.714 121.057 191.646C120.352 191.201 119.681 190.703 119.049 190.159C120.3 178.835 128.809 170.434 128.995 164.327C129.162 158.861 124.833 154.548 119.611 153.392C125.721 153.714 131.297 158.426 131.108 164.615Z" fill="#231F20"/>
<path d="M268.209 271.209L263.915 272.052L258.616 255.871L264.955 254.627L268.209 271.209Z" fill="#A0616A"/>
<path d="M272.122 278.919L269.074 279.517L267.965 276.743L267.137 279.897L259.055 281.483C258.668 281.56 258.266 281.51 257.909 281.341C257.552 281.172 257.258 280.894 257.07 280.546C256.882 280.199 256.81 279.8 256.864 279.409C256.919 279.017 257.097 278.654 257.372 278.371L262.95 272.641L262.379 269.73L269.247 268.803L272.122 278.919Z" fill="#2F2E41"/>
<path d="M251.575 274.474L247.281 275.317L241.983 259.136L248.321 257.892L251.575 274.474Z" fill="#A0616A"/>
<path d="M255.488 282.184L252.441 282.782L251.332 280.009L250.504 283.162L242.422 284.749C242.034 284.825 241.633 284.775 241.276 284.606C240.918 284.438 240.624 284.159 240.436 283.812C240.248 283.464 240.176 283.065 240.231 282.674C240.285 282.283 240.463 281.919 240.739 281.636L246.317 275.907L245.745 272.995L252.613 272.068L255.488 282.184Z" fill="#2F2E41"/>
<path d="M226.666 233.896C227.73 234.969 243.33 267.138 243.33 267.138L251.435 266.487L248.818 258.136L244.415 243.313L240.209 233.668C240.209 233.668 244.556 214.206 244.773 212.681L244.926 211.587L251.765 233.429C252.213 234.169 252.507 234.992 252.628 235.848C252.828 237.257 258.343 257.962 258.343 257.962L260.492 265.354L267.469 264.965L267.67 251.406C269.141 246.726 264.872 231.958 263.656 230.744C262.441 229.53 260.902 219.716 260.902 219.716C262.021 219.057 264.385 193.19 260.829 194.038C260.803 192.689 260.756 191.49 260.756 191.49L253.548 187.688L237.184 186.693L232.885 185.576C232.885 185.576 228.419 199.939 228.616 200.571C228.873 201.37 228.848 202.233 228.545 203.016L226.12 228.137C226.12 228.137 225.591 232.812 226.666 233.896Z" fill="#2F2E41"/>
<path d="M249.112 141.299L245.601 136.521L237.235 138.5L235.56 144.517C235.56 144.517 229.546 155.455 229.892 158.561C230.326 162.466 236.682 180.777 233.784 180.078C233.784 180.078 228.962 188.674 232.67 187.946C236.379 187.218 255.226 194.467 256.559 195.437C257.893 196.406 262.958 196.211 262.06 193.816C261.162 191.422 256.405 178.453 256.405 178.453L258.037 156.273C258.804 151.402 258.319 146.204 253.97 143.887L249.112 141.299Z" fill="#CCCCCC"/>
<path d="M214.844 131.934C213.629 131.707 212.38 131.722 211.171 131.978C209.961 132.235 208.814 132.727 207.795 133.427C206.776 134.127 205.904 135.021 205.23 136.058C204.556 137.095 204.093 138.256 203.867 139.472C202.916 144.589 204.83 155.987 209.448 160.981C212.415 152.265 220.96 147.584 222.379 142.925C223.896 137.947 219.956 132.888 214.844 131.934Z" fill="#6C63FF"/>
<path d="M213.123 143.229C214.787 142.903 215.871 141.288 215.544 139.622C215.217 137.956 213.603 136.871 211.939 137.197C210.275 137.524 209.191 139.139 209.518 140.805C209.845 142.47 211.459 143.556 213.123 143.229Z" fill="white"/>
<path d="M208.032 165.252C209.121 165.038 209.831 163.98 209.617 162.889C209.403 161.798 208.346 161.087 207.256 161.301C206.166 161.514 205.456 162.572 205.67 163.663C205.885 164.754 206.942 165.465 208.032 165.252Z" fill="#6C63FF"/>
<path opacity="0.2" d="M215.222 138.2C215.888 138.669 216.34 139.383 216.479 140.186C216.619 140.989 216.434 141.814 215.966 142.48C215.499 143.146 214.785 143.599 213.984 143.739C213.182 143.88 212.358 143.695 211.691 143.227C212.39 143.437 213.14 143.39 213.807 143.097C214.475 142.803 215.016 142.281 215.333 141.624C215.651 140.968 215.725 140.219 215.542 139.513C215.359 138.806 214.93 138.188 214.334 137.768C214.651 137.863 214.951 138.009 215.222 138.2Z" fill="#231F20"/>
<path opacity="0.2" d="M222.391 142.936C220.971 147.595 212.426 152.276 209.459 160.992C209.025 160.518 208.627 160.013 208.267 159.48C211.484 151.318 219.507 146.796 220.878 142.294C222.106 138.266 219.759 134.184 216.11 132.268C220.588 133.744 223.781 138.374 222.391 142.936Z" fill="#231F20"/>
<path d="M206.621 162.77C207.061 162.586 207.536 162.5 208.013 162.519C208.49 162.538 208.957 162.661 209.382 162.881C209.806 163.1 210.177 163.41 210.469 163.788C210.76 164.166 210.966 164.604 211.07 165.07L218.421 166.355L218.732 171.017L208.377 169.056C207.583 169.18 206.771 169.008 206.095 168.572C205.419 168.136 204.927 167.468 204.71 166.693C204.494 165.918 204.569 165.091 204.921 164.368C205.273 163.645 205.878 163.077 206.621 162.77L206.621 162.77Z" fill="#A0616A"/>
<path d="M252.541 144.024C251.735 143.725 250.878 143.589 250.019 143.623C249.161 143.656 248.317 143.859 247.537 144.22C246.757 144.581 246.056 145.092 245.474 145.725C244.892 146.357 244.441 147.099 244.146 147.906L237.518 166.051L214.303 165.142L213.372 171.093L244.423 178.987L254.307 153.223C255.866 149.77 256.092 145.339 252.541 144.024Z" fill="#CCCCCC"/>
<path d="M249.005 124.075C249.313 125.638 249.232 127.253 248.771 128.777C248.309 130.302 247.481 131.689 246.359 132.818C245.236 133.947 243.854 134.782 242.333 135.252C240.813 135.721 239.2 135.809 237.637 135.509C236.074 135.208 234.609 134.528 233.369 133.529C232.13 132.529 231.154 131.241 230.528 129.776C229.902 128.311 229.645 126.715 229.779 125.128C229.913 123.54 230.434 122.01 231.297 120.672L231.334 120.617C231.394 120.522 231.455 120.427 231.52 120.335C231.52 120.335 231.521 120.335 231.521 120.334C231.522 120.334 231.522 120.334 231.522 120.333C231.523 120.333 231.523 120.332 231.523 120.332C231.523 120.331 231.523 120.331 231.523 120.33C231.604 120.219 231.685 120.108 231.771 120C232.912 118.519 234.455 117.4 236.216 116.775C237.977 116.15 239.88 116.046 241.698 116.476C243.517 116.906 245.173 117.852 246.469 119.199C247.765 120.547 248.645 122.24 249.005 124.075L249.005 124.075Z" fill="#2F2E41"/>
<path d="M239.121 136.627C243.539 135.76 246.417 131.471 245.548 127.048C244.68 122.626 240.395 119.743 235.977 120.611C231.559 121.478 228.682 125.766 229.55 130.189C230.418 134.612 234.703 137.494 239.121 136.627Z" fill="#9E616A"/>
<path d="M246.492 129.235L245.121 129.261C244.354 129.271 243.602 129.047 242.965 128.619C242.328 128.19 241.838 127.577 241.559 126.861L240.691 129.285L240.638 129.315C237.758 130.944 234.492 131.267 230.656 130.303C229.558 130.024 228.479 129.677 227.423 129.266L227.345 129.236L227.324 129.156C226.633 126.586 226.79 124.295 227.765 122.705C228.142 122.105 228.641 121.591 229.23 121.198C229.818 120.804 230.484 120.54 231.182 120.421C231.229 120.399 231.269 120.365 231.3 120.322C231.315 120.306 231.33 120.289 231.346 120.274L231.343 120.26L231.426 120.199C231.605 120.067 231.789 119.939 231.974 119.818C233.437 118.894 235.13 118.401 236.86 118.398C238.59 118.394 240.286 118.879 241.753 119.797C244.679 121.668 246.585 125.398 246.496 129.079L246.492 129.235Z" fill="#2F2E41"/>
<path d="M264.704 132.746C261.705 131.874 264.204 126.081 262.915 123.235C261.625 120.388 256.371 120.423 255.45 117.436C254.528 114.45 253.152 111.454 250.687 109.534C249.112 108.308 247.005 107.588 245.093 108.155C244.446 108.347 243.848 108.677 243.34 109.121C242.831 109.566 242.425 110.114 242.147 110.73C241.87 111.346 241.729 112.015 241.733 112.691C241.737 113.366 241.887 114.033 242.172 114.646C241.462 113.968 240.06 114.42 239.88 115.385C239.721 116.243 240.608 117.07 241.443 116.979C242.779 118.097 244.287 119.266 246.023 119.203C246.304 119.212 246.583 119.157 246.839 119.043C247.095 118.928 247.321 118.757 247.502 118.541C247.823 118.083 247.704 117.315 247.179 117.123C249.46 117.549 251.151 119.596 251.908 121.792C252.665 123.989 252.679 126.358 252.837 128.676C252.994 130.994 253.338 133.397 254.636 135.324C256.17 137.599 258.928 138.905 261.67 138.959C264.412 139.013 267.103 137.906 269.236 136.183C271.37 134.46 272.978 132.153 274.178 129.685C271.775 132.219 268.056 133.721 264.704 132.746Z" fill="#2F2E41"/>
<path d="M246.108 129.079C246.108 129.079 242 120.69 231.441 120.64C231.429 120.638 231.388 120.631 231.334 120.617C231.299 120.604 231.257 120.593 231.216 120.581C231.317 120.494 231.417 120.415 231.52 120.335C231.52 120.335 231.521 120.335 231.521 120.334C231.522 120.334 231.522 120.334 231.522 120.333C231.523 120.333 231.523 120.332 231.523 120.332C231.523 120.331 231.523 120.331 231.523 120.33C231.604 120.219 231.685 120.108 231.771 120L232.063 119.954C232.063 119.954 241.938 116.338 246.108 129.079Z" fill="#FD6584"/>
<path opacity="0.2" d="M246.38 158.533L241.949 166.313L231.919 165.372L243.19 168.111L246.38 158.533Z" fill="black"/>
<path d="M304.624 273.059L216.437 290.472C216.336 290.492 216.232 290.471 216.146 290.413C216.061 290.356 216.002 290.267 215.982 290.166C215.963 290.065 215.984 289.96 216.041 289.875C216.098 289.789 216.187 289.73 216.287 289.71L304.474 272.297C304.575 272.277 304.68 272.298 304.765 272.355C304.851 272.413 304.91 272.502 304.93 272.603C304.949 272.704 304.928 272.809 304.871 272.895C304.814 272.98 304.725 273.039 304.624 273.059V273.059Z" fill="#CACACA"/>
<path d="M296.864 213.045C292.733 213.856 288.176 214.588 283.191 215.242C257.406 218.623 223.315 219.469 187.195 217.627C151.076 215.785 117.245 211.473 91.9335 205.487C79.6036 202.571 69.9598 199.413 63.2702 196.1C56.1878 192.592 52.6879 189.01 52.8674 185.454C53.2174 178.524 67.5146 174.217 79.4469 171.824L79.6395 172.784C63.2533 176.07 54.0924 180.588 53.8443 185.503C53.528 191.765 67.4929 198.701 92.158 204.535C117.414 210.508 151.183 214.81 187.245 216.65C223.307 218.489 257.336 217.644 283.064 214.272C308.189 210.978 322.781 205.498 323.097 199.237C323.36 194.039 313.783 188.337 296.13 183.181L296.404 182.241C309.23 185.987 324.443 191.985 324.074 199.287C323.895 202.844 320.052 206.051 312.652 208.82C308.434 210.398 303.151 211.811 296.864 213.045Z" fill="#6C63FF"/>
</g>
<defs>
<clipPath id="clip0_2_103">
<rect width="269" height="193" fill="white" transform="translate(36.3285 129.145) rotate(-11.106)"/>
</clipPath>
</defs>
</svg>
