<svg width="389" height="389" viewBox="0 0 389 389" fill="none" xmlns="http://www.w3.org/2000/svg">
<path d="M141.984 67.3595C164.166 58.202 188.358 55.0092 212.155 58.0985C235.953 61.1878 258.528 70.4517 277.636 84.9692C296.745 99.4868 311.72 118.752 321.076 140.851C330.431 162.95 333.84 187.113 330.963 210.937C328.086 234.762 319.024 257.419 304.678 276.656C290.331 295.893 271.2 311.04 249.186 320.592C227.171 330.144 203.04 333.768 179.191 331.105C155.342 328.441 132.605 319.581 113.241 305.407L194.454 194.454L141.984 67.3595Z" fill="#6359FF"/>
<g clip-path="url(#clip0_5_141)">
<path d="M210.179 202.093C210.332 201.516 210.253 200.902 209.96 200.382C209.666 199.862 209.181 199.477 208.608 199.308C208.491 199.276 208.372 199.253 208.251 199.241L206.36 191.471L202.078 191.043L205.82 201.406C205.807 201.91 205.96 202.405 206.258 202.813C206.555 203.221 206.979 203.52 207.464 203.661C207.74 203.739 208.03 203.762 208.315 203.729C208.6 203.695 208.876 203.605 209.127 203.465C209.378 203.325 209.598 203.137 209.776 202.911C209.954 202.686 210.086 202.427 210.164 202.151C210.169 202.132 210.174 202.112 210.179 202.093Z" fill="#A0616A"/>
<path d="M175.409 271.898L172.195 270.951L174.318 258.109L179.062 259.508L175.409 271.898Z" fill="#A0616A"/>
<path d="M174.535 275.283L164.651 272.37L164.688 272.245C164.989 271.225 165.682 270.366 166.616 269.858C167.55 269.35 168.648 269.233 169.668 269.533L169.668 269.534L171.877 268.697L174.842 271.059L175.705 271.313L174.535 275.283Z" fill="#2F2E41"/>
<path d="M184.235 254.439L181.37 256.174L173.308 245.951L177.537 243.39L184.235 254.439Z" fill="#A0616A"/>
<path d="M186.148 257.366L177.337 262.702L177.269 262.591C176.718 261.681 176.551 260.591 176.804 259.558C177.057 258.526 177.711 257.636 178.62 257.085L178.62 257.085L179.49 254.89L183.233 254.292L184.002 253.826L186.148 257.366Z" fill="#2F2E41"/>
<path d="M178.999 183.512L169.748 192.696L167.893 200.698L157.848 225.394L175.824 252.314L180.128 248.805L171.749 227.73L172.268 226.564C172.136 226.138 172.163 225.678 172.344 225.271C172.525 224.863 172.849 224.535 173.254 224.347C174.733 223.581 173.812 223.093 173.812 223.093L179.954 209.28L194.413 210.576L195.052 187.286L178.999 183.512Z" fill="#2F2E41"/>
<path d="M182.503 201.483L171.884 263.975L177.948 266.445L184.167 245.344C184.167 245.344 183.348 243.855 184.66 243.671C185.972 243.487 185.394 241.179 185.394 241.179L194.413 210.576L191.3 199.802L182.503 201.483Z" fill="#2F2E41"/>
<path d="M184.636 147.302L178.467 147.747L173.046 154.194C173.046 154.194 164.548 155.713 165.826 161.621C167.103 167.528 174.987 181.993 174.987 181.993C172.834 184.255 172.698 186.444 174.488 188.562C176.019 194.067 184.835 194.189 194.965 193.339C197.856 189.735 197.123 182.617 196.428 175.535L199.619 167.306C199.619 167.306 195.057 153.341 193.77 153.011C192.483 152.681 187.657 150.706 187.657 150.706L184.636 147.302Z" fill="#3F3D56"/>
<path d="M191.339 153.577C191.95 153.266 192.623 153.094 193.308 153.073C193.994 153.052 194.676 153.184 195.304 153.458C195.933 153.732 196.493 154.142 196.945 154.659C197.396 155.175 197.727 155.785 197.915 156.445L204.373 179.184C205.372 180.077 205.591 181.489 205.489 183.115C206.438 183.077 206.924 183.839 206.404 186.337L208.84 194.914L203.31 198.313L199.798 188.981C198.563 188.232 199.751 186.497 198.796 186.319C197.841 186.141 197.958 184.092 197.958 184.092C196.793 183.734 196.611 183.085 197.244 182.194L190.409 161.855L191.339 153.577Z" fill="#3F3D56"/>
<path d="M139.98 137.972C139.997 138.569 140.245 139.136 140.673 139.552C141.101 139.969 141.675 140.202 142.272 140.202C142.393 140.201 142.514 140.189 142.634 140.167L146.636 147.091L150.865 146.298L144.357 137.405C144.228 136.917 143.94 136.486 143.54 136.178C143.14 135.87 142.649 135.703 142.144 135.703C141.857 135.706 141.573 135.765 141.309 135.878C141.044 135.991 140.805 136.154 140.604 136.359C140.403 136.564 140.244 136.807 140.137 137.074C140.03 137.34 139.976 137.625 139.979 137.912C139.979 137.932 139.98 137.952 139.98 137.972Z" fill="#A0616A"/>
<path d="M171.969 156.14L163.649 156.202L158.518 153.761L157.565 152.542C157.459 150.984 156.606 150.014 155.259 149.434C155.259 149.434 154.016 149.487 154.396 148.269C154.775 147.05 148.664 140.472 148.664 140.472L143.72 145.3L146.386 151.617C147.851 152.099 148.82 152.172 147.529 153.714C147.341 155.51 147.24 155.051 148.5 155.456L153.08 163.899L166.122 170.005L175.695 169.508L171.969 156.14Z" fill="#3F3D56"/>
<path d="M177.358 144.862C181.284 146.019 185.405 143.776 186.561 139.852C187.718 135.927 185.473 131.808 181.546 130.651C177.62 129.494 173.499 131.737 172.343 135.661C171.186 139.586 173.432 143.705 177.358 144.862Z" fill="#A0616A"/>
<path d="M184.054 138.964C184.071 138.883 184.086 138.801 184.1 138.719C184.066 138.796 184.05 138.88 184.054 138.964V138.964Z" fill="#2F2E41"/>
<path d="M170.996 129.963C171.122 129.074 171.882 128.248 172.782 128.256C173.343 128.261 173.854 128.565 174.388 128.733C175.886 129.202 179.302 127.483 180.869 127.527C182.438 127.574 184.087 128.93 183.762 130.465C187.813 130.454 189.918 133.799 188.926 137.804C188.15 140.937 184.277 144.376 181.097 144.934C181.287 143.034 183.341 140.708 183.531 138.81C183.619 138.298 183.6 137.773 183.476 137.268C183.319 136.774 182.897 136.325 182.379 136.305C182.166 136.306 181.96 136.386 181.802 136.53C181.645 136.675 181.548 136.873 181.529 137.086C181.388 136.524 181.109 136.006 180.718 135.579C180.326 135.152 179.834 134.829 179.287 134.64C178.739 134.451 178.153 134.401 177.581 134.495C177.009 134.589 176.47 134.824 176.012 135.178L176.881 133.678C175.562 134.479 174.041 134.888 172.497 134.855C172.445 134.729 172.418 134.594 172.417 134.459C172.413 134.319 172.446 134.18 172.511 134.057C172.577 133.933 172.674 133.828 172.792 133.753C172.555 133.845 172.34 133.984 172.158 134.162C171.977 134.339 171.834 134.552 171.737 134.786C170.833 134.681 169.999 134.247 169.396 133.565C168.825 132.869 170.87 130.853 170.996 129.963Z" fill="#2F2E41"/>
<path d="M196.613 282.585L188.933 280.321L188.917 280.252C188.871 280.045 188.832 279.828 188.801 279.608C188.508 277.682 188.745 275.647 188.953 273.852L189.11 272.499C189.129 272.335 189.197 272.181 189.304 272.055C189.412 271.93 189.554 271.84 189.713 271.796C189.872 271.752 190.041 271.757 190.197 271.809C190.354 271.861 190.491 271.959 190.592 272.09C191.509 273.283 192.427 274.476 193.345 275.667C193.693 276.119 194.088 276.64 194.453 277.185C194.567 276.972 194.683 276.76 194.797 276.55C194.877 276.405 194.997 276.287 195.144 276.211C195.291 276.136 195.457 276.105 195.621 276.124C195.785 276.143 195.94 276.211 196.065 276.318C196.191 276.426 196.281 276.568 196.325 276.727L196.799 278.435C197.143 279.682 197.416 280.891 196.968 281.976C196.964 281.99 196.959 282.003 196.953 282.016C196.875 282.193 196.778 282.361 196.664 282.517L196.613 282.585Z" fill="#F0F0F0"/>
<path d="M204.274 285.023L131.264 263.584C131.191 263.562 131.13 263.512 131.094 263.445C131.058 263.379 131.049 263.3 131.071 263.227C131.092 263.155 131.142 263.093 131.208 263.057C131.275 263.02 131.353 263.012 131.426 263.033L204.436 284.472C204.509 284.494 204.57 284.544 204.606 284.611C204.643 284.677 204.651 284.756 204.629 284.829C204.608 284.901 204.558 284.963 204.492 284.999C204.425 285.036 204.347 285.044 204.274 285.023V285.023Z" fill="#CACACA"/>
<path d="M129.497 231.118L70.9399 213.86C69.5291 213.443 68.3413 212.483 67.6373 211.192C66.9333 209.9 66.7705 208.382 67.1847 206.971L90.3643 128.319C90.7817 126.909 91.7416 125.722 93.0335 125.018C94.3255 124.315 95.8439 124.153 97.2557 124.567L155.812 141.824C157.223 142.242 158.411 143.202 159.115 144.493C159.819 145.785 159.982 147.303 159.568 148.714L136.388 227.366C135.971 228.776 135.011 229.963 133.719 230.666C132.427 231.37 130.908 231.532 129.497 231.118V231.118Z" fill="white"/>
<path d="M129.497 231.118L70.9399 213.86C69.5291 213.443 68.3413 212.483 67.6373 211.192C66.9333 209.9 66.7705 208.382 67.1847 206.971L90.3643 128.319C90.7817 126.909 91.7416 125.722 93.0335 125.018C94.3255 124.315 95.8439 124.153 97.2557 124.567L155.812 141.824C157.223 142.242 158.411 143.202 159.115 144.493C159.819 145.785 159.982 147.303 159.568 148.714L136.388 227.366C135.971 228.776 135.011 229.963 133.719 230.666C132.427 231.37 130.908 231.532 129.497 231.118V231.118ZM97.1194 125.03C95.8303 124.651 94.4439 124.8 93.2643 125.442C92.0847 126.084 91.2083 127.168 90.8272 128.455L67.6476 207.107C67.2694 208.396 67.4181 209.782 68.0609 210.961C68.7037 212.14 69.7881 213.017 71.0763 213.398L129.633 230.655C130.922 231.033 132.308 230.885 133.488 230.243C134.668 229.601 135.544 228.517 135.925 227.23L159.105 148.577C159.483 147.289 159.334 145.903 158.691 144.724C158.049 143.545 156.964 142.668 155.676 142.287L97.1194 125.03Z" fill="#E6E6E6"/>
<path d="M98.2821 153.093C99.4325 153.432 100.64 152.774 100.979 151.624C101.318 150.475 100.66 149.268 99.5093 148.929C98.3588 148.59 97.1515 149.247 96.8126 150.397C96.4738 151.547 97.1317 152.754 98.2821 153.093Z" fill="#CCCCCC"/>
<path d="M141.646 163.861L105.946 153.34C105.884 153.322 105.833 153.28 105.802 153.224C105.772 153.168 105.765 153.102 105.783 153.04C105.801 152.979 105.842 152.927 105.899 152.897C105.955 152.866 106.021 152.859 106.082 152.877L141.782 163.398C141.843 163.416 141.895 163.458 141.926 163.514C141.956 163.57 141.963 163.636 141.945 163.698C141.927 163.759 141.885 163.811 141.829 163.841C141.773 163.872 141.707 163.879 141.646 163.861Z" fill="#CCCCCC"/>
<path d="M87.0125 191.759C88.1629 192.098 89.3703 191.441 89.7091 190.291C90.048 189.141 89.3901 187.934 88.2397 187.595C87.0892 187.256 85.8819 187.913 85.543 189.063C85.2042 190.213 85.8621 191.42 87.0125 191.759Z" fill="#CCCCCC"/>
<path d="M93.415 169.66C94.5654 169.999 95.7727 169.342 96.1116 168.192C96.4505 167.042 95.7926 165.835 94.6421 165.496C93.4917 165.157 92.2844 165.814 91.9455 166.964C91.6066 168.114 92.2645 169.321 93.415 169.66Z" fill="#CCCCCC"/>
<path d="M139.506 169.415L130.248 166.687C130.002 166.614 129.795 166.447 129.673 166.223C129.55 165.998 129.522 165.734 129.595 165.488C129.667 165.243 129.834 165.036 130.059 164.914C130.283 164.792 130.548 164.764 130.793 164.836L140.051 167.564C140.297 167.637 140.503 167.804 140.626 168.028C140.748 168.253 140.776 168.517 140.704 168.763C140.632 169.008 140.465 169.215 140.24 169.337C140.015 169.459 139.751 169.487 139.506 169.415Z" fill="#6C63FF"/>
<path d="M132.756 192.317L123.498 189.588C123.253 189.516 123.046 189.349 122.923 189.124C122.801 188.9 122.773 188.635 122.845 188.39C122.917 188.145 123.084 187.938 123.309 187.816C123.534 187.693 123.798 187.665 124.044 187.738L133.302 190.466C133.547 190.538 133.754 190.705 133.876 190.93C133.999 191.155 134.027 191.419 133.955 191.664C133.882 191.91 133.715 192.116 133.491 192.239C133.266 192.361 133.002 192.389 132.756 192.317Z" fill="#6C63FF"/>
<path d="M137.925 150.193L111.333 142.356C110.685 142.165 110.14 141.725 109.817 141.132C109.493 140.539 109.419 139.843 109.61 139.195C109.801 138.548 110.241 138.003 110.834 137.68C111.427 137.357 112.124 137.283 112.772 137.474L139.364 145.311C140.012 145.502 140.557 145.942 140.88 146.535C141.203 147.128 141.278 147.824 141.087 148.472C140.896 149.119 140.456 149.664 139.863 149.987C139.27 150.31 138.573 150.384 137.925 150.193V150.193Z" fill="#6C63FF"/>
<path d="M124.234 221.233L114.976 218.505C114.731 218.432 114.524 218.265 114.402 218.041C114.279 217.816 114.251 217.552 114.323 217.306C114.396 217.061 114.562 216.854 114.787 216.732C115.012 216.61 115.276 216.582 115.522 216.654L124.78 219.382C125.025 219.455 125.232 219.622 125.354 219.846C125.477 220.071 125.505 220.335 125.433 220.58C125.36 220.826 125.194 221.032 124.969 221.155C124.744 221.277 124.48 221.305 124.234 221.233Z" fill="#6C63FF"/>
<path d="M124.108 215.011L92.9623 205.832C92.7664 205.772 92.578 205.689 92.4009 205.586C91.8714 205.281 91.4602 204.807 91.2339 204.24C91.0075 203.673 90.9792 203.046 91.1536 202.46L94.272 191.879C94.477 191.187 94.9483 190.605 95.5823 190.26C96.2164 189.916 96.9614 189.836 97.654 190.04L128.765 199.209C129.185 199.331 129.569 199.554 129.883 199.858C130.008 199.979 130.121 200.111 130.22 200.254C130.459 200.588 130.618 200.971 130.685 201.376C130.753 201.781 130.727 202.195 130.609 202.588L127.491 213.169C127.286 213.862 126.815 214.444 126.181 214.79C125.547 215.135 124.801 215.214 124.108 215.011ZM97.5177 190.503C96.9478 190.335 96.3348 190.4 95.8131 190.684C95.2914 190.968 94.9037 191.447 94.7349 192.016L91.6165 202.597C91.473 203.078 91.4963 203.594 91.6826 204.061C91.8689 204.528 92.2073 204.918 92.6431 205.169C92.7877 205.253 92.9415 205.321 93.1014 205.37L124.245 214.548C124.815 214.716 125.428 214.65 125.95 214.366C126.472 214.082 126.86 213.603 127.028 213.033L130.147 202.452C130.243 202.128 130.264 201.787 130.208 201.454C130.153 201.121 130.022 200.806 129.825 200.531C129.744 200.414 129.651 200.305 129.548 200.206C129.29 199.956 128.974 199.772 128.629 199.672L97.5177 190.503Z" fill="#E6E6E6"/>
<path d="M122.089 214.164C124.515 211.146 127.008 208.184 129.565 205.278L127.883 210.987C126.337 212.295 124.658 213.438 122.874 214.396L122.089 214.164Z" fill="#E6E6E6"/>
<path d="M130.022 200.391C125.745 204.584 121.361 208.662 116.87 212.626L116.337 212.469C120.902 208.444 125.361 204.298 129.715 200.032C129.829 200.141 129.932 200.262 130.022 200.391V200.391Z" fill="#E6E6E6"/>
<path d="M107.873 199.818C105.092 202.51 102.155 205.036 99.0759 207.382L95.9027 206.447C98.727 204.529 101.553 202.611 104.38 200.694C105.192 200.141 106.065 199.569 107.048 199.537L107.873 199.818Z" fill="#E6E6E6"/>
<path d="M103.809 198.057C103.376 198.304 102.954 198.569 102.545 198.853C101.655 199.451 100.772 200.058 99.8868 200.662C99.3358 201.038 98.7849 201.413 98.2386 201.79C98.1355 201.671 98.0417 201.544 97.958 201.411C97.482 200.668 97.3161 199.768 97.4959 198.904C97.6757 198.04 98.1869 197.281 98.9199 196.789C99.653 196.298 100.55 196.113 101.417 196.274C102.285 196.435 103.056 196.93 103.563 197.652C103.655 197.781 103.738 197.916 103.809 198.057V198.057Z" fill="#6C63FF"/>
<path d="M121.044 205.58L115.617 201.564L112.922 199.571C112.044 198.922 111.183 198.223 110.243 197.665C109.434 197.152 108.492 196.888 107.535 196.904C106.667 196.963 105.821 197.196 105.046 197.589C104.705 197.757 104.37 197.936 104.041 198.125C103.608 198.372 103.185 198.637 102.777 198.921C101.886 199.519 101.003 200.126 100.118 200.73C99.5673 201.106 99.0164 201.481 98.4701 201.858C96.6503 203.1 94.8371 204.347 93.0305 205.601C92.8532 205.546 92.6827 205.471 92.5225 205.378C94.4065 204.073 96.2954 202.773 98.1894 201.479C98.4078 201.327 98.6314 201.174 98.8521 201.023C99.775 200.393 100.698 199.763 101.622 199.134C102.337 198.648 103.048 198.156 103.795 197.72C103.862 197.68 103.929 197.642 103.998 197.602C105.505 196.749 107.258 196.119 108.993 196.6C110.014 196.883 110.9 197.494 111.744 198.112C112.652 198.779 113.555 199.453 114.461 200.125L119.926 204.169L121.293 205.18C121.535 205.357 121.29 205.763 121.044 205.58Z" fill="#E6E6E6"/>
<path d="M107.492 178.634L100.274 176.507C99.8881 176.392 99.5634 176.13 99.3709 175.777C99.1785 175.424 99.134 175.009 99.2472 174.623L101.236 167.874C101.35 167.488 101.613 167.164 101.966 166.971C102.319 166.779 102.734 166.735 103.12 166.848L110.339 168.975C110.725 169.09 111.049 169.352 111.242 169.705C111.434 170.058 111.479 170.473 111.365 170.859L109.376 177.608C109.262 177.994 109 178.318 108.647 178.511C108.293 178.703 107.878 178.747 107.492 178.634V178.634Z" fill="#E6E6E6"/>
<path d="M120.368 182.429L113.15 180.301C112.764 180.187 112.439 179.925 112.247 179.572C112.054 179.218 112.01 178.803 112.123 178.418L114.112 171.668C114.226 171.283 114.489 170.958 114.842 170.766C115.195 170.574 115.61 170.529 115.996 170.643L123.215 172.77C123.6 172.884 123.925 173.147 124.118 173.5C124.31 173.853 124.355 174.268 124.241 174.654L122.252 181.403C122.138 181.788 121.876 182.113 121.522 182.305C121.169 182.497 120.754 182.542 120.368 182.429V182.429Z" fill="#E6E6E6"/>
<path d="M133.244 186.223L126.025 184.096C125.64 183.982 125.315 183.719 125.123 183.366C124.93 183.013 124.886 182.598 124.999 182.212L126.988 175.463C127.102 175.077 127.364 174.753 127.718 174.561C128.071 174.368 128.486 174.324 128.872 174.437L136.09 176.565C136.476 176.679 136.801 176.941 136.993 177.294C137.186 177.647 137.23 178.062 137.117 178.448L135.128 185.197C135.014 185.583 134.751 185.908 134.398 186.1C134.045 186.292 133.63 186.336 133.244 186.223V186.223Z" fill="#E6E6E6"/>
</g>
<defs>
<clipPath id="clip0_5_141">
<rect width="153.848" height="144.629" fill="white" transform="translate(97.8395 102.954) rotate(16.4208)"/>
</clipPath>
</defs>
</svg>
