<svg width="368" height="368" viewBox="0 0 368 368" fill="none" xmlns="http://www.w3.org/2000/svg">
<path d="M274.766 287.271C256.741 303.114 234.884 313.963 211.366 318.74C187.849 323.518 163.491 322.057 140.713 314.504C117.936 306.95 97.5314 293.567 81.5286 275.684C65.5259 257.802 54.482 236.042 49.4948 212.568C44.5075 189.095 45.7506 164.725 53.1003 141.88C60.45 119.036 73.6506 98.5131 91.3898 82.3514C109.129 66.1896 130.789 54.9519 154.217 49.7553C177.645 44.5586 202.026 45.584 224.935 52.7295L183.993 183.993L274.766 287.271Z" fill="#6359FF"/>
<g clip-path="url(#clip0_2_46)">
<path d="M183.955 153.067L123.048 167.953C119.085 168.922 116.658 172.92 117.626 176.883L132.323 237.015C133.292 240.978 137.29 243.405 141.253 242.437L202.16 227.55C206.123 226.582 208.551 222.584 207.582 218.62L192.885 158.489C191.917 154.526 187.919 152.098 183.955 153.067Z" fill="#F2F2F2"/>
<path d="M136.199 166.303C131.295 167.502 127.068 170.599 124.448 174.914C121.828 179.229 121.03 184.409 122.228 189.313L133.799 236.654C133.982 237.402 134.311 238.108 134.766 238.729C135.222 239.351 135.795 239.877 136.454 240.277C137.112 240.676 137.843 240.943 138.605 241.06C139.367 241.178 140.144 241.144 140.892 240.961L179.765 231.46C187.121 229.662 193.461 225.016 197.391 218.543C201.321 212.071 202.519 204.302 200.721 196.947L191.41 158.85C191.04 157.338 190.085 156.035 188.755 155.227C187.425 154.419 185.828 154.173 184.316 154.543L136.199 166.303Z" fill="white"/>
<path d="M251.346 110.544L99.2798 147.711C99.2086 147.728 99.1335 147.717 99.0708 147.679C99.0082 147.641 98.9633 147.579 98.9459 147.508C98.9285 147.437 98.9401 147.362 98.9781 147.299C99.0161 147.236 99.0775 147.191 99.1486 147.174L251.214 110.007C251.286 109.99 251.361 110.002 251.423 110.04C251.486 110.078 251.531 110.139 251.548 110.21C251.566 110.281 251.554 110.356 251.516 110.419C251.478 110.482 251.417 110.527 251.346 110.544Z" fill="#E6E6E6"/>
<path d="M104.919 137.796C106.172 137.49 106.934 136.203 106.621 134.922C106.308 133.641 105.039 132.85 103.785 133.157C102.532 133.463 101.77 134.75 102.083 136.031C102.396 137.312 103.666 138.102 104.919 137.796Z" fill="#E6E6E6"/>
<path d="M112.758 135.88C114.011 135.574 114.773 134.287 114.46 133.006C114.147 131.725 112.877 130.935 111.624 131.241C110.371 131.547 109.609 132.834 109.922 134.115C110.235 135.396 111.505 136.187 112.758 135.88Z" fill="#E6E6E6"/>
<path d="M120.597 133.964C121.85 133.658 122.612 132.371 122.299 131.09C121.986 129.809 120.716 129.019 119.463 129.325C118.21 129.631 117.447 130.918 117.761 132.199C118.074 133.48 119.343 134.271 120.597 133.964Z" fill="#E6E6E6"/>
<path d="M129.416 131.294C129.38 131.302 129.343 131.304 129.307 131.298C129.27 131.292 129.236 131.279 129.204 131.26L127.291 130.069C127.229 130.031 127.185 129.97 127.168 129.9C127.151 129.83 127.162 129.756 127.199 129.694L128.348 127.754C128.366 127.723 128.39 127.695 128.419 127.673C128.448 127.651 128.481 127.635 128.517 127.626C128.552 127.616 128.589 127.614 128.625 127.619C128.661 127.624 128.696 127.637 128.727 127.655C128.759 127.674 128.786 127.698 128.808 127.728C128.83 127.757 128.846 127.79 128.855 127.826C128.863 127.861 128.865 127.898 128.86 127.934C128.854 127.97 128.842 128.005 128.823 128.036L127.812 129.743L129.496 130.791C129.542 130.819 129.579 130.861 129.602 130.911C129.624 130.96 129.632 131.015 129.623 131.069C129.614 131.122 129.59 131.172 129.553 131.212C129.516 131.252 129.469 131.281 129.416 131.294V131.294Z" fill="#E6E6E6"/>
<path d="M131.989 130.665C131.936 130.678 131.88 130.675 131.829 130.656C131.778 130.638 131.734 130.605 131.701 130.561C131.669 130.517 131.65 130.465 131.647 130.411C131.644 130.356 131.658 130.302 131.685 130.256L132.696 128.549L131.012 127.501C130.981 127.482 130.954 127.457 130.932 127.427C130.911 127.398 130.895 127.364 130.887 127.329C130.879 127.293 130.877 127.256 130.883 127.22C130.889 127.184 130.902 127.15 130.921 127.119C130.941 127.088 130.966 127.061 130.995 127.04C131.025 127.019 131.059 127.004 131.094 126.996C131.13 126.987 131.167 126.986 131.203 126.993C131.239 126.999 131.273 127.012 131.304 127.032L133.217 128.223C133.279 128.261 133.323 128.321 133.34 128.391C133.357 128.462 133.346 128.536 133.309 128.598L132.161 130.537C132.142 130.569 132.117 130.596 132.088 130.618C132.058 130.64 132.024 130.656 131.989 130.665Z" fill="#E6E6E6"/>
<path d="M234.748 101.433L231.901 102.128C231.824 102.147 231.751 102.181 231.687 102.228C231.623 102.275 231.569 102.334 231.528 102.402C231.486 102.47 231.459 102.545 231.447 102.624C231.435 102.702 231.438 102.782 231.457 102.86L232.154 105.709C232.172 105.786 232.206 105.859 232.253 105.923C232.3 105.987 232.359 106.041 232.427 106.083C232.495 106.124 232.57 106.151 232.649 106.163C232.728 106.176 232.808 106.172 232.885 106.153L235.732 105.457C235.888 105.419 236.023 105.321 236.106 105.184C236.19 105.047 236.216 104.882 236.178 104.725L235.482 101.876C235.443 101.72 235.344 101.586 235.207 101.502C235.069 101.419 234.904 101.394 234.748 101.433Z" fill="#E6E6E6"/>
<path d="M227.772 103.138L224.925 103.833C224.848 103.852 224.775 103.886 224.711 103.933C224.647 103.98 224.592 104.039 224.551 104.107C224.51 104.175 224.483 104.25 224.47 104.329C224.458 104.407 224.462 104.488 224.481 104.565L225.177 107.414C225.196 107.491 225.23 107.564 225.277 107.628C225.324 107.692 225.383 107.747 225.451 107.788C225.519 107.829 225.594 107.856 225.673 107.869C225.751 107.881 225.831 107.877 225.908 107.858L228.755 107.162C228.912 107.124 229.046 107.026 229.13 106.889C229.214 106.752 229.24 106.587 229.202 106.431L228.506 103.581C228.467 103.425 228.368 103.291 228.23 103.208C228.093 103.124 227.928 103.099 227.772 103.138Z" fill="#E6E6E6"/>
<path d="M241.355 99.96L238.508 100.656C238.431 100.675 238.358 100.708 238.294 100.755C238.23 100.802 238.175 100.862 238.134 100.929C238.093 100.997 238.066 101.073 238.053 101.151C238.041 101.23 238.045 101.31 238.064 101.387L238.76 104.237C238.779 104.314 238.813 104.386 238.86 104.451C238.907 104.515 238.966 104.569 239.034 104.61C239.102 104.651 239.177 104.679 239.256 104.691C239.334 104.703 239.414 104.699 239.491 104.681L242.338 103.985C242.495 103.947 242.629 103.848 242.713 103.711C242.797 103.574 242.823 103.409 242.785 103.253L242.089 100.403C242.05 100.247 241.951 100.113 241.813 100.03C241.676 99.9468 241.511 99.9217 241.355 99.96V99.96Z" fill="#E6E6E6"/>
<path d="M185.284 118.094L166.77 122.619C166.13 122.776 165.453 122.672 164.89 122.329C164.326 121.987 163.921 121.435 163.765 120.795C163.608 120.154 163.713 119.478 164.055 118.914C164.397 118.351 164.949 117.946 165.59 117.79L184.104 113.265C184.744 113.108 185.421 113.212 185.984 113.554C186.548 113.897 186.952 114.449 187.109 115.089C187.265 115.73 187.161 116.406 186.819 116.97C186.477 117.533 185.925 117.938 185.284 118.094V118.094Z" fill="#E6E6E6"/>
<path d="M174.435 205.88L133.116 215.979C132.88 216.037 132.63 215.998 132.422 215.872C132.214 215.746 132.065 215.542 132.007 215.306C131.949 215.069 131.988 214.82 132.114 214.612C132.24 214.404 132.444 214.255 132.68 214.197L174 204.098C174.236 204.04 174.486 204.079 174.694 204.205C174.902 204.331 175.051 204.535 175.109 204.771C175.166 205.008 175.128 205.257 175.002 205.465C174.875 205.673 174.672 205.822 174.435 205.88Z" fill="#F2F2F2"/>
<path d="M168.223 180.464L105.987 195.675C105.87 195.704 105.749 195.71 105.629 195.691C105.51 195.673 105.396 195.632 105.293 195.569C105.189 195.507 105.1 195.424 105.028 195.327C104.957 195.23 104.905 195.12 104.877 195.002C104.848 194.885 104.843 194.764 104.861 194.644C104.88 194.525 104.922 194.411 104.984 194.308C105.047 194.205 105.129 194.115 105.227 194.044C105.324 193.973 105.434 193.922 105.552 193.893L167.788 178.682C168.024 178.625 168.273 178.663 168.481 178.79C168.688 178.916 168.837 179.12 168.895 179.356C168.953 179.592 168.915 179.841 168.789 180.049C168.663 180.257 168.459 180.406 168.223 180.464V180.464Z" fill="#F2F2F2"/>
<path d="M169.78 186.827L107.541 202.039C107.305 202.097 107.101 202.246 106.975 202.454C106.849 202.662 106.811 202.912 106.869 203.148C106.927 203.384 107.076 203.588 107.283 203.714C107.491 203.841 107.741 203.879 107.977 203.822L170.216 188.61C170.452 188.552 170.655 188.403 170.781 188.195C170.907 187.987 170.946 187.737 170.888 187.501C170.83 187.265 170.681 187.061 170.473 186.935C170.266 186.808 170.016 186.769 169.78 186.827V186.827Z" fill="#F2F2F2"/>
<path d="M172.206 196.757L109.969 211.968C109.733 212.026 109.483 211.987 109.276 211.861C109.068 211.735 108.918 211.531 108.861 211.295C108.803 211.058 108.841 210.809 108.968 210.601C109.094 210.393 109.297 210.244 109.534 210.186L171.77 194.975C172.006 194.917 172.256 194.955 172.464 195.082C172.672 195.208 172.821 195.412 172.879 195.648C172.937 195.884 172.898 196.134 172.772 196.342C172.646 196.55 172.442 196.699 172.206 196.757V196.757Z" fill="#F2F2F2"/>
<path d="M242.012 255.138L239.155 255.836L235.102 245.147L239.319 244.117L242.012 255.138Z" fill="#A0616A"/>
<path d="M242.841 258.094L234.055 260.241L234.028 260.13C233.806 259.223 233.954 258.265 234.438 257.467C234.923 256.669 235.705 256.096 236.612 255.874L236.612 255.874L237.919 254.264L241.211 254.75L241.978 254.563L242.841 258.094Z" fill="#2F2E41"/>
<path d="M270.761 248.111L267.904 248.809L263.851 238.121L268.068 237.09L270.761 248.111Z" fill="#A0616A"/>
<path d="M271.59 251.067L262.804 253.215L262.776 253.103C262.555 252.196 262.703 251.239 263.187 250.44C263.672 249.642 264.454 249.069 265.36 248.848L265.361 248.848L266.668 247.238L269.96 247.724L270.727 247.536L271.59 251.067Z" fill="#2F2E41"/>
<path d="M228.868 191.253C228.868 191.253 227.479 193.704 227.715 195.015C227.952 196.326 228.356 193.74 227.952 196.326C227.547 198.912 227.165 197.348 227.547 198.912C227.93 200.477 226.231 202.511 226.231 202.511L226.25 217.404L236.264 249.839L240.567 248.787C241.586 235.621 241.146 225.755 237.973 222.064L240.702 207.323C240.702 207.323 260.628 239.893 261.191 240.196C261.753 240.5 261.61 239.913 261.753 240.5C261.897 241.087 261.167 240.643 261.897 241.087L265.304 243.156L269.315 241.761C269.315 241.761 263.613 216.047 257.955 212.745C257.955 212.745 255.667 198.797 254.619 199.094C253.571 199.391 254.001 201.151 253.571 199.391C253.141 197.631 254.279 196.855 254.279 196.855L247.737 185.352L228.868 191.253Z" fill="#2F2E41"/>
<path d="M244.377 158.583L244.47 176.205L246.923 182.168L249.863 189.312L245.905 190.012L239.78 191.093L228.409 193.105L219.399 160.489L223.223 153.867L223.504 151.037L230.917 149.177L233.458 151.871L238.342 152.054C239.021 152.283 239.676 152.574 240.301 152.923C241.683 153.691 243.005 154.773 243.804 156.017C244.041 156.378 244.231 156.768 244.369 157.178L244.377 158.583Z" fill="#E6E6E6"/>
<path d="M220.143 209.274C220.402 209.035 220.605 208.744 220.74 208.419C220.875 208.094 220.938 207.743 220.924 207.391C220.91 207.04 220.82 206.695 220.66 206.382C220.5 206.069 220.274 205.794 219.997 205.577L223.14 193.882L220.119 192.217L216.487 206.134C216.156 206.627 216.017 207.225 216.097 207.813C216.177 208.402 216.47 208.941 216.921 209.328C217.371 209.715 217.948 209.923 218.542 209.913C219.136 209.903 219.705 209.676 220.143 209.274V209.274Z" fill="#E6E6E6"/>
<path d="M222.171 157.682L226.631 181.653L223.904 198.069L221.106 204.57L220.968 201.968L217.766 201.238L217.466 201.17L217.748 178.573L216.233 170.189C215.973 168.746 216.015 167.264 216.356 165.839C216.698 164.413 217.331 163.073 218.217 161.905L220.756 158.557L222.171 157.682Z" fill="#E6E6E6"/>
<path d="M220.143 209.274C220.402 209.035 220.605 208.744 220.74 208.419C220.875 208.094 220.938 207.743 220.924 207.391C220.91 207.04 220.82 206.695 220.66 206.382C220.5 206.069 220.274 205.794 219.997 205.577L223.14 193.882L220.119 192.217L216.487 206.134C216.156 206.627 216.017 207.225 216.097 207.813C216.177 208.402 216.47 208.941 216.921 209.328C217.371 209.715 217.948 209.923 218.542 209.913C219.136 209.903 219.705 209.676 220.143 209.274V209.274Z" fill="#A0616A"/>
<path d="M222.171 157.682L226.631 181.653L223.904 198.069L221.106 204.57L220.968 201.968L217.766 201.238L217.466 201.17L217.748 178.573L216.233 170.189C215.973 168.746 216.015 167.264 216.356 165.839C216.698 164.413 217.331 163.073 218.217 161.905L220.756 158.557L222.171 157.682Z" fill="#E6E6E6"/>
<path d="M228.501 156.999L167.593 171.886C163.63 172.854 161.203 176.852 162.171 180.816L169.851 212.237C170.82 216.2 174.818 218.627 178.781 217.659L239.688 202.772C243.651 201.804 246.079 197.806 245.11 193.842L237.43 162.421C236.462 158.458 232.464 156.031 228.501 156.999Z" fill="white"/>
<path d="M239.754 203.041L178.847 217.927C176.872 218.407 174.788 218.085 173.052 217.03C171.315 215.976 170.067 214.275 169.583 212.302L161.903 180.881C161.423 178.907 161.746 176.823 162.8 175.086C163.855 173.349 165.555 172.102 167.528 171.617L228.435 156.731C230.409 156.251 232.493 156.573 234.23 157.628C235.967 158.682 237.214 160.383 237.699 162.356L245.378 193.777C245.859 195.751 245.536 197.835 244.482 199.572C243.427 201.309 241.727 202.556 239.754 203.041V203.041ZM167.659 172.154C165.827 172.602 164.248 173.759 163.269 175.371C162.29 176.983 161.992 178.918 162.44 180.75L165.31 192.494C167.033 199.545 171.487 205.622 177.691 209.389C183.895 213.156 191.342 214.304 198.392 212.581L239.623 202.504C241.455 202.056 243.034 200.899 244.012 199.287C244.991 197.675 245.29 195.74 244.842 193.908L237.162 162.487C236.94 161.58 236.542 160.725 235.99 159.972C235.438 159.219 234.743 158.582 233.945 158.097C233.147 157.612 232.261 157.29 231.338 157.147C230.415 157.005 229.473 157.046 228.566 157.268L167.659 172.154Z" fill="#3F3D56"/>
<path d="M191.843 201.302L177.622 204.778C177.104 204.905 176.786 205.428 176.913 205.947C177.039 206.465 177.563 206.783 178.081 206.656L192.302 203.18C192.821 203.054 193.139 202.53 193.012 202.012C192.885 201.493 192.362 201.175 191.843 201.302Z" fill="#6C63FF"/>
<path d="M234.152 188.26L224.224 190.687C223.705 190.813 223.387 191.337 223.514 191.855L224.76 196.953C224.887 197.472 225.41 197.79 225.929 197.663L235.857 195.236C236.375 195.11 236.693 194.586 236.566 194.068L235.32 188.97C235.193 188.451 234.67 188.133 234.152 188.26Z" fill="#6C63FF"/>
<path d="M177.676 188.13C180.344 187.478 181.978 184.787 181.326 182.12C180.674 179.453 177.983 177.819 175.315 178.471C172.648 179.123 171.014 181.813 171.666 184.481C172.318 187.148 175.009 188.782 177.676 188.13Z" fill="#6C63FF"/>
<path d="M226.596 148.768C229.945 147.949 231.997 144.57 231.178 141.221C230.36 137.872 226.981 135.82 223.631 136.639C220.282 137.457 218.231 140.836 219.049 144.185C219.868 147.535 223.247 149.586 226.596 148.768Z" fill="#A0616A"/>
<path d="M230.855 144.622C230.991 144.973 230.345 145.171 230.115 144.873C229.886 144.575 229.985 144.149 230.095 143.79L230.349 142.954C230.397 142.797 230.406 142.631 230.377 142.469C230.347 142.307 230.28 142.155 230.179 142.024C230.079 141.894 229.949 141.79 229.8 141.72C229.652 141.65 229.488 141.617 229.324 141.623C229.502 140.636 228.801 139.629 227.872 139.25C226.944 138.871 226.032 140.228 225.12 140.645C224.208 141.063 223.263 140.518 222.497 141.165L222.726 139.829L220.13 141.788L220.472 140.264C219.75 140.483 219.656 141.451 219.686 142.205C219.717 143.008 219.544 144.065 218.673 144.11C218.464 144.114 218.259 144.059 218.081 143.952C217.902 143.845 217.758 143.689 217.664 143.504C216.415 141.181 217.619 138.014 219.988 136.974C220.074 136.179 220.413 135.432 220.954 134.843C221.495 134.254 222.211 133.854 222.997 133.701C223.782 133.548 224.596 133.651 225.318 133.994C226.041 134.337 226.635 134.903 227.013 135.608L227.582 134.416L228.084 135.785C228.652 135.581 229.304 135.858 229.712 136.302C230.121 136.746 230.149 137.441 230.548 137.894C232.337 139.925 232.574 142.644 231.128 144.89" fill="#2F2E41"/>
<path d="M277.979 245.205C278.106 245.18 278.221 245.117 278.31 245.025C278.399 244.932 278.458 244.814 278.478 244.687C278.498 244.561 278.478 244.43 278.422 244.315C278.366 244.199 278.275 244.104 278.163 244.042L278.081 243.886C278.083 243.871 278.085 243.857 278.087 243.842C278.14 243.515 278.289 243.21 278.515 242.967C278.74 242.724 279.033 242.553 279.355 242.475C279.678 242.397 280.016 242.417 280.328 242.531C280.639 242.645 280.91 242.849 281.106 243.116C281.89 244.184 282.809 245.22 283.271 246.439C283.475 246.978 283.584 247.548 283.593 248.123C284.133 245.313 284.064 242.418 283.388 239.637C283.218 238.939 283.009 238.252 282.761 237.577C282.558 237.024 282.332 236.482 282.081 235.949C280.717 233.06 278.687 230.537 276.158 228.585C275.096 228.303 274.146 227.702 273.436 226.863C273.179 226.561 272.967 226.225 272.807 225.863C272.916 225.851 272.816 224.169 272.712 224.09C272.805 223.83 273.041 223.655 273.149 223.397C273.684 222.117 274.833 222.037 275.769 223.37C277.15 223.69 277.413 224.717 276.901 225.891C276.575 226.638 276.717 227.506 276.461 228.283C276.517 228.328 276.576 228.371 276.632 228.416C277.673 229.24 278.631 230.165 279.491 231.177C279.035 229.92 278.884 228.572 279.05 227.244C279.242 225.998 279.888 224.83 280.424 223.663C280.564 223.35 280.794 223.086 281.085 222.904C281.376 222.722 281.714 222.63 282.056 222.64C282.399 222.65 282.731 222.761 283.011 222.96C283.29 223.159 283.505 223.436 283.627 223.757C283.632 223.771 283.637 223.785 283.642 223.799C283.543 223.892 283.447 223.988 283.355 224.088C283.239 224.214 283.164 224.372 283.14 224.542C283.115 224.712 283.143 224.885 283.219 225.038C283.294 225.192 283.415 225.319 283.564 225.403C283.713 225.487 283.884 225.524 284.055 225.51L284.073 225.508C284.133 225.933 284.161 226.361 284.156 226.79C286.088 230.388 284.286 232.311 281.239 233.123C281.18 233.174 281.123 233.225 281.063 233.274C282.047 234.78 282.832 236.407 283.396 238.114C283.726 239.123 283.973 240.156 284.137 241.204L284.133 241.167C284.076 239.971 284.433 238.792 285.144 237.828C286.205 236.414 287.982 235.554 289.199 234.328C289.327 234.193 289.492 234.098 289.672 234.053C289.853 234.009 290.043 234.017 290.219 234.076C290.395 234.136 290.551 234.245 290.667 234.39C290.784 234.535 290.856 234.711 290.876 234.896L290.88 234.935C290.688 235.074 290.504 235.225 290.331 235.387C290.232 235.48 290.136 235.577 290.044 235.676C289.928 235.803 289.853 235.961 289.829 236.13C289.805 236.3 289.832 236.473 289.908 236.627C289.984 236.78 290.104 236.908 290.253 236.992C290.402 237.076 290.574 237.113 290.744 237.098L290.762 237.096C290.774 237.095 290.785 237.094 290.798 237.093C290.646 238.053 290.33 238.979 289.864 239.832C290.062 243.337 287.473 244.307 284.38 244.028L284.379 244.029C284.398 245.466 284.268 246.901 283.991 248.311L279.156 249.493C279.125 249.443 279.096 249.391 279.067 249.341C279.522 249.26 279.965 249.124 280.386 248.935C279.92 248.582 279.452 248.226 278.986 247.874C278.976 247.867 278.966 247.861 278.957 247.853C278.72 247.672 278.482 247.494 278.245 247.313L278.245 247.313C278.066 246.624 277.977 245.916 277.979 245.205L277.979 245.205Z" fill="#F2F2F2"/>
<path d="M204.297 267.804C204.307 267.846 204.325 267.886 204.351 267.921C204.376 267.955 204.408 267.985 204.445 268.007C204.482 268.03 204.523 268.045 204.566 268.051C204.609 268.058 204.652 268.056 204.694 268.045L293.318 246.385C293.403 246.364 293.476 246.31 293.521 246.236C293.566 246.161 293.58 246.072 293.559 245.987C293.539 245.903 293.485 245.83 293.411 245.784C293.336 245.739 293.247 245.725 293.162 245.746L204.538 267.407C204.496 267.417 204.457 267.435 204.422 267.461C204.387 267.486 204.357 267.518 204.335 267.555C204.312 267.592 204.298 267.633 204.291 267.676C204.285 267.719 204.287 267.762 204.297 267.804V267.804Z" fill="#CCCCCC"/>
<path d="M242.419 202.308C242.669 202.061 242.863 201.762 242.986 201.432C243.109 201.103 243.159 200.75 243.133 200.399C243.107 200.049 243.004 199.708 242.833 199.4C242.662 199.093 242.426 198.826 242.142 198.619L244.868 186.82L241.79 185.263L238.654 199.301C238.341 199.805 238.224 200.407 238.324 200.993C238.425 201.578 238.737 202.106 239.201 202.477C239.665 202.847 240.249 203.035 240.842 203.004C241.435 202.973 241.996 202.726 242.419 202.308V202.308Z" fill="#A0616A"/>
<path d="M243.804 156.017L244.369 157.178L247.923 174.474L246.923 182.168L245.905 190.012L245.78 190.978L243.215 197.573L242.984 194.977L239.757 194.361L239.457 194.306L239.78 191.093L240.527 183.711L240.849 180.516L238.936 171.711L237.123 163.388C236.812 161.955 236.801 160.473 237.091 159.036C237.382 157.599 237.967 156.238 238.81 155.039L240.301 152.923C241.683 153.691 243.005 154.773 243.804 156.017Z" fill="#E6E6E6"/>
<path d="M190.943 214.314L178.299 217.12C176.734 217.5 175.082 217.244 173.705 216.407C172.328 215.571 171.339 214.223 170.955 212.659L167.204 199.639C171.369 209.983 178.967 215.334 190.943 214.314Z" fill="#6C63FF"/>
</g>
<defs>
<clipPath id="clip0_2_46">
<rect width="171.22" height="155.244" fill="white" transform="translate(90.4927 136.144) rotate(-13.7345)"/>
</clipPath>
</defs>
</svg>
